<svg xmlns="http://www.w3.org/2000/svg" viewBox="0 0 24 24" id="honda-motor">
  <path fill="#CC0000" d="M0 15.136c.085-.409.259-.769.574-1.052.316-.284.684-.474 1.072-.633 5.379-2.202 10.767-4.382 16.131-6.62 2.05-.856 4.046-1.844 6.066-2.773.03-.014.056-.038.084-.058h.07c-.002.056.013.118-.007.166-.275.679-.526 1.37-.841 2.029-.323.677-.871 1.149-1.573 1.407a744.522 744.522 0 0 1-6.268 2.275c-4.399 1.57-8.802 3.129-13.203 4.697a2.5 2.5 0 0 0-.56.272c-.424.286-.517.741-.24 1.172.102.159.237.302.376.432 1.383 1.305 2.769 2.605 4.155 3.906.037.035.081.063.158.123-.08.01-.106.016-.131.016-.591.001-1.182-.002-1.773.003-.102.001-.154-.029-.188-.13a2.09 2.09 0 0 0-.522-.795c-.763-.766-1.516-1.544-2.288-2.301-.5-.49-.964-.992-1.091-1.717L0 15.136z"></path>
  <path fill="#CC0000" d="m6.713 15.19-2.429.641c-.649.171-1.299.339-1.947.513-.106.029-.186.022-.265-.063-.09-.098-.197-.181-.288-.279-.266-.286-.217-.662.119-.856.134-.077.283-.133.431-.182 5.813-1.926 11.627-3.847 17.439-5.778.779-.259 1.543-.565 2.315-.849.056-.021.113-.039.175-.061.01.041.021.061.016.073-.316.736-.695 1.437-1.192 2.065a2.616 2.616 0 0 1-1.41.907l-9.552 2.585-3.268.883c-.235.063-.277.171-.144.401zm13.568-3.138c-.022.045-.038.094-.067.135-.346.496-.679 1.001-1.044 1.482-.382.505-.929.719-1.536.835-2.842.545-5.681 1.102-8.521 1.655-.023.004-.045.012-.067.017-.234.053-.276.171-.116.393-.295.058-.579.116-.864.171-1.455.28-2.91.557-4.364.84-.135.026-.234.01-.339-.094-.288-.286-.591-.557-.916-.86l17.803-4.619.031.045zm-8.807 6.114-1.48.189-3.464.442c-.477.061-.953.124-1.43.18-.056.007-.134-.008-.173-.044-.375-.34-.743-.686-1.113-1.032-.011-.01-.015-.028-.029-.056l14.271-2.695c-.047.079-.063.121-.092.153-.371.417-.731.845-1.121 1.244-.455.466-1.045.638-1.674.724-1.164.16-2.326.338-3.488.512-.275.041-.313.117-.207.383zm3.762 2.331h-.22c-2.745 0-5.49-.001-8.235.002a.423.423 0 0 1-.322-.126c-.381-.365-.769-.723-1.184-1.111.245-.031.453-.06.662-.084l3.725-.434c.741-.087 1.482-.177 2.224-.261a.355.355 0 0 1 .212.035c1.02.633 2.037 1.27 3.054 1.907.016.012.031.028.084.072z"></path>
</svg>
